<svg width="20" height="20" viewBox="0 0 20 20" fill="none" xmlns="http://www.w3.org/2000/svg">
<path d="M18.6804 1.294C16.961 -0.431334 14.1649 -0.431334 12.4455 1.294L1.01421 12.7323C0.924834 12.8218 0.869507 12.9368 0.852484 13.0604L0.00556197 19.3397C-0.0199734 19.5187 0.043865 19.6976 0.167286 19.8211C0.273683 19.9276 0.422639 19.9915 0.571595 19.9915C0.597131 19.9915 0.622666 19.9915 0.648201 19.9873L4.42743 19.4761C4.74237 19.4335 4.96367 19.1438 4.92111 18.8285C4.87855 18.5133 4.58915 18.2918 4.27422 18.3344L1.24403 18.7433L1.83559 14.364L6.44047 18.9734C6.54686 19.0799 6.69582 19.1438 6.84478 19.1438C6.99373 19.1438 7.14269 19.0841 7.24908 18.9734L18.6804 7.53504C19.5146 6.70006 19.9742 5.59243 19.9742 4.41239C19.9742 3.23234 19.5146 2.12472 18.6804 1.294ZM12.6668 2.69983L14.5862 4.62113L4.15505 15.0626L2.23565 13.1413L12.6668 2.69983ZM6.84903 17.755L4.97218 15.8763L15.4034 5.43481L17.2802 7.31351L6.84903 17.755ZM18.0803 6.49131L13.4882 1.89468C14.0713 1.41329 14.799 1.14916 15.5651 1.14916C16.4375 1.14916 17.2547 1.48997 17.8718 2.10342C18.4889 2.71687 18.8251 3.53907 18.8251 4.41239C18.8251 5.18347 18.5612 5.90768 18.0803 6.49131Z" fill="#2DBDB1"/>
</svg>
